<svg viewBox="0 0 33 32" xmlns="http://www.w3.org/2000/svg" fill-rule="evenodd" clip-rule="evenodd" stroke-linejoin="round" stroke-miterlimit="1.414">
  <path d="M16.288.015C7.294.015 0 7.308 0 16.305c0 7.197 4.667 13.303 11.14 15.457.815.15 1.112-.354 1.112-.785 0-.387-.014-1.41-.022-2.77-4.53.984-5.487-2.184-5.487-2.184-.74-1.882-1.81-2.383-1.81-2.383-1.478-1.01.113-.99.113-.99 1.635.115 2.495 1.678 2.495 1.678 1.454 2.49 3.814 1.77 4.742 1.354.148-1.053.57-1.77 1.034-2.178-3.617-.41-7.42-1.81-7.42-8.05 0-1.78.635-3.233 1.677-4.372-.168-.412-.727-2.068.16-4.31 0 0 1.367-.44 4.48 1.67 1.298-.362 2.692-.543 4.077-.55 1.384.007 2.777.188 4.078.55 3.11-2.11 4.475-1.67 4.475-1.67.89 2.242.33 3.898.163 4.31 1.044 1.14 1.674 2.593 1.674 4.37 0 6.26-3.81 7.636-7.437 8.04.584.502 1.105 1.496 1.105 3.016 0 2.178-.02 3.935-.02 4.47 0 .434.294.94 1.12.782 6.468-2.158 11.13-8.26 11.13-15.454 0-8.998-7.293-16.29-16.29-16.29z"/>
</svg>
