<svg viewBox="0 0 43 43" xmlns="http://www.w3.org/2000/svg" fill-rule="evenodd" clip-rule="evenodd" stroke-linejoin="round" stroke-miterlimit="1.414">
  <path d="M21.02 0c11.6 0 21.017 9.418 21.017 21.02 0 11.6-9.418 21.016-21.018 21.016C9.42 42.036 0 32.62 0 21.02 0 9.417 9.42 0 21.02 0zm0 2.987c9.95 0 18.03 8.08 18.03 18.032 0 9.95-8.08 18.03-18.03 18.03-9.953 0-18.033-8.08-18.033-18.03 0-9.955 8.08-18.034 18.032-18.034z"/>
  <path d="M19.237 21.018c3.572 0 6.472 2.9 6.472 6.472 0 3.572-2.9 6.472-6.474 6.472-3.572 0-6.472-2.9-6.472-6.472 0-3.572 2.9-6.472 6.472-6.472zm0 2.863c1.992 0 3.61 1.62 3.61 3.61 0 1.993-1.618 3.61-3.61 3.61-1.992 0-3.608-1.617-3.608-3.61 0-1.99 1.614-3.61 3.606-3.61z"/>
  <path d="M23.018 12.193h2.69v15.513h-2.69V12.193z"/>
  <circle cx="24.364" cy="8.867" r="1.993"/>
  <defs>
      <linearGradient x1="0%" y1="16.3510597%" x2="100.000143%" y2="100.000715%" id="hover-gradient">
          <stop stop-color="#0891E6" offset="0%"></stop>
          <stop stop-color="#3BBC7B" offset="100%"></stop>
      </linearGradient>
  </defs>
</svg>
