<svg viewBox="0 0 43 43" xmlns="http://www.w3.org/2000/svg" fill-rule="evenodd" clip-rule="evenodd" stroke-linejoin="round" stroke-miterlimit="1.414">
  <g>
    <path d="M21.13.12c11.6 0 21.017 9.418 21.017 21.02 0 11.6-9.418 21.017-21.018 21.017C9.53 42.157.11 32.74.11 21.14.11 9.537 9.53.12 21.13.12zm0 2.987c9.95 0 18.03 8.08 18.03 18.032 0 9.95-8.08 18.03-18.03 18.03-9.953 0-18.033-8.08-18.033-18.03 0-9.953 8.08-18.033 18.032-18.033z"/>
    <path d="M17.347 21.14c3.572 0 6.472 2.898 6.472 6.47 0 3.572-2.9 6.472-6.473 6.472-3.57 0-6.47-2.9-6.47-6.472 0-3.572 2.9-6.47 6.47-6.47zm0 2.862c1.992 0 3.61 1.617 3.61 3.608 0 1.992-1.618 3.61-3.61 3.61-1.99 0-3.608-1.618-3.608-3.61 0-1.99 1.616-3.608 3.607-3.608z"/>
    <path d="M21.13 12.314h2.69v15.513h-2.69z"/>
    <circle cx="22.474" cy="8.987" r="1.993"/>
    <defs>
        <linearGradient x1="-0.000618517461%" y1="16.3511906%" x2="100.000095%" y2="99.9994053%" id="hover-gradient">
            <stop stop-color="#3386BB" offset="0%"></stop>
            <stop stop-color="#53A47C" offset="100%"></stop>
        </linearGradient>
    </defs>
  </g>
</svg>
