<?xml version="1.0" encoding="UTF-8" standalone="no"?><!DOCTYPE svg PUBLIC "-//W3C//DTD SVG 1.1//EN" "http://www.w3.org/Graphics/SVG/1.1/DTD/svg11.dtd"><svg width="100%" height="100%" viewBox="0 0 43 43" version="1.1" xmlns="http://www.w3.org/2000/svg" xmlns:xlink="http://www.w3.org/1999/xlink" xml:space="preserve" style="fill-rule:evenodd;clip-rule:evenodd;stroke-linejoin:round;stroke-miterlimit:1.41421;"><g><path d="M21.129,0.12c11.6,0 21.018,9.418 21.018,21.019c0,11.6 -9.418,21.018 -21.018,21.018c-11.6,0 -21.018,-9.418 -21.018,-21.018c0,-11.601 9.418,-21.019 21.018,-21.019ZM21.129,3.107c9.952,0 18.032,8.08 18.032,18.032c0,9.952 -8.08,18.031 -18.032,18.031c-9.952,0 -18.032,-8.079 -18.032,-18.031c0,-9.952 8.08,-18.032 18.032,-18.032Z" style="fill:#6d6d6d;"/><path d="M17.347,21.139c3.572,0 6.472,2.899 6.472,6.471c0,3.572 -2.9,6.472 -6.472,6.472c-3.571,0 -6.471,-2.9 -6.471,-6.472c0,-3.572 2.9,-6.471 6.471,-6.471ZM17.347,24.002c1.992,0 3.609,1.617 3.609,3.608c0,1.992 -1.617,3.609 -3.609,3.609c-1.991,0 -3.608,-1.617 -3.608,-3.609c0,-1.991 1.617,-3.608 3.608,-3.608Z" style="fill:#6d6d6d;"/><rect x="21.129" y="12.314" width="2.69" height="15.513" style="fill:#6d6d6d;"/><circle cx="22.474" cy="8.987" r="1.993" style="fill:#6d6d6d;"/></g></svg>